<svg xmlns="http://www.w3.org/2000/svg" xmlns:xlink="http://www.w3.org/1999/xlink" width="73.446" height="70.052" viewBox="0 0 73.446 70.052"><defs><clipPath id="a"><rect width="73.446" height="70.052" fill="none"/></clipPath></defs><g clip-path="url(#a)"><path d="M133.56,326.247c-.122.053-.247.1-.371.15.124-.05.249-.1.371-.15" transform="translate(-105.124 -257.502)" fill="#fff"/><path d="M104.609,332.41c.1,0,.207-.008.31-.011-.139,0-.278.008-.417.008l.107,0" transform="translate(-82.482 -262.357)" fill="#fff"/><path d="M119.519,330.673q-.217.047-.435.089.218-.041.435-.089" transform="translate(-93.991 -260.995)" fill="#fff"/><path d="M114.706,331.559c-.145.022-.29.043-.436.062.146-.018.29-.039.436-.062" transform="translate(-90.192 -261.694)" fill="#fff"/><path d="M109.851,332.137c-.142.012-.285.026-.427.034.143-.009.285-.022.427-.034" transform="translate(-86.367 -262.151)" fill="#fff"/><path d="M124.27,329.489c-.141.04-.283.077-.425.114.142-.036.284-.073.425-.114" transform="translate(-97.749 -260.061)" fill="#fff"/><path d="M111.512,272.546h0l0,0" transform="translate(-88.012 -215.114)" fill="#fff"/><path d="M111.458,272.5l.031.033-.031-.033" transform="translate(-87.972 -215.077)" fill="#fff"/><path d="M138.15,324.2c-.1.051-.2.1-.3.145.1-.049.2-.094.3-.145" transform="translate(-108.801 -255.886)" fill="#fff"/><path d="M128.951,328.012c-.134.048-.27.091-.405.135.136-.044.271-.087.405-.135" transform="translate(-101.459 -258.895)" fill="#fff"/><path d="M73.994,325.087c-.28-.127-.556-.262-.826-.409.27.147.546.283.826.409" transform="translate(-57.75 -256.263)" fill="#fff"/><path d="M111.457,272.493l0,0,0,0" transform="translate(-87.971 -215.075)" fill="#fff"/><path d="M100.661,332.292c-.186-.006-.372-.012-.557-.025.185.012.371.019.557.025" transform="translate(-79.011 -262.253)" fill="#fff"/><path d="M79,327.413c-.192-.071-.38-.15-.569-.23.188.08.377.159.569.23" transform="translate(-61.908 -258.241)" fill="#fff"/><path d="M96.259,331.891c-.179-.017-.358-.035-.536-.058.178.023.357.042.536.058" transform="translate(-75.553 -261.911)" fill="#fff"/><path d="M91.9,331.217q-.264-.041-.525-.093.262.051.525.093" transform="translate(-72.119 -261.351)" fill="#fff"/><path d="M83.305,329.009c-.178-.052-.354-.111-.529-.171.176.06.351.118.529.171" transform="translate(-65.334 -259.547)" fill="#fff"/><path d="M87.582,330.262c-.174-.039-.348-.083-.52-.129.173.046.346.09.52.129" transform="translate(-68.717 -260.569)" fill="#fff"/><path d="M171.644,13.69A77.174,77.174,0,0,0,165.884,0c-5.79,5.989-5.79,5.989-8.961,8.769-9.039,7.923-22.5,13.44-29.477,23.457-.222.318-.423.65-.622.982.052.036.106.071.158.108a37.086,37.086,0,0,1,9.233,8.671,19.783,19.783,0,0,1,3.313,11.992l.6-.56,1.657-1.527.408-.376.1-.094c-.014.016.068-.068-.025.029l.023-.024.047-.048.186-.192.746-.758c.492-.5.992-.991,1.46-1.491l1.362-1.5c.926-.961,1.7-1.988,2.519-2.92.8-.949,1.494-1.91,2.213-2.791l1.907-2.6c1.126-1.684,2.146-3.146,2.9-4.4.787-1.234,1.37-2.253,1.77-2.936l.627-1.045-.35,1.167c-.249.755-.54,1.879-1.1,3.263-.509,1.409-1.211,3.081-2.1,4.966l-1.51,2.964c-.582,1.016-1.186,2.1-1.868,3.19a65.986,65.986,0,0,1-4.866,6.78l-.705.873-.18.219-.045.055-.023.027-.074.078-.094.1-.376.409L143.21,56.5l-1.565,1.688-1.792,1.669c-.7.653-1.412,1.313-2.145,1.95a18.122,18.122,0,0,1-2.729,4.314,20.222,20.222,0,0,0,18.065-.087c8.24-4.484,15.024-13.894,17.722-22.246,3.138-9.714,3.877-20.245.878-30.092" transform="translate(-100.1)" fill="#fff"/><path d="M33.3,135.536c.044-.048.081-.1.124-.152a17.739,17.739,0,0,0,4.1-9.464,18.319,18.319,0,0,0-2.855-12.656,34.978,34.978,0,0,0-8.8-8.237c-4.522-3.188-9.485-6-13.365-9.4A80.155,80.155,0,0,1,5.762,89.03a58.03,58.03,0,0,0-4.332,10.3,37.881,37.881,0,0,0,.66,22.63c2.029,6.281,7.13,13.358,13.327,16.73.27.147.546.283.826.409.093.042.189.078.284.118.188.08.377.159.569.23.114.042.231.079.346.118.176.06.351.118.529.171.124.036.249.069.374.1.173.046.346.089.52.129.129.029.258.055.388.08q.262.051.525.092c.13.02.261.04.392.057.178.023.357.042.536.059.129.012.258.024.387.033.185.012.371.019.557.025.123,0,.246.01.37.011.139,0,.278,0,.417-.008.206,0,.413-.009.62-.021.143-.008.285-.022.428-.034.2-.017.4-.036.594-.06.146-.018.291-.04.436-.062.194-.03.387-.062.579-.1q.218-.041.435-.089c.19-.042.38-.087.569-.136.142-.037.284-.073.425-.114.19-.054.378-.114.566-.176.135-.044.271-.088.4-.135.193-.069.384-.145.573-.222.124-.05.249-.1.371-.15.207-.09.409-.188.611-.286.1-.049.2-.094.3-.145.3-.154.591-.316.876-.49-.7-.515-1.368-1.066-2.045-1.588a33.7,33.7,0,0,1-2.843-2.466l-1.347-1.255-1.177-1.27-1.147-1.247-.283-.307-.07-.077-.055-.059-.017-.021-.034-.041-.135-.164-.531-.656a49.657,49.657,0,0,1-3.659-5.1c-.513-.823-.968-1.635-1.405-2.4l-1.136-2.229c-.67-1.418-1.2-2.675-1.581-3.734-.422-1.041-.641-1.887-.829-2.454l-.263-.878.471.786c.3.513.739,1.28,1.331,2.208.563.943,1.331,2.042,2.178,3.309l1.434,1.957c.541.662,1.064,1.385,1.664,2.1.617.7,1.2,1.473,1.895,2.2l1.024,1.128c.352.376.728.742,1.1,1.121l.561.57.14.145.035.036.017.018-.031-.033,0,0,0,0,0,0,.008.008h0l.076.07.307.283,1.246,1.148,1.269,1.178,1.311,1.063c.883.708,1.744,1.456,2.733,2.121.93.644,1.83,1.352,2.818,1.946l.04.026" transform="translate(0 -70.27)" fill="#fff"/></g></svg>