<svg xmlns="http://www.w3.org/2000/svg" xmlns:xlink="http://www.w3.org/1999/xlink" width="65.391" height="74.315" viewBox="0 0 65.391 74.315"><defs><clipPath id="a"><rect width="65.391" height="74.315" fill="none"/></clipPath></defs><g clip-path="url(#a)"><path d="M32.279,66.539a4.913,4.913,0,0,1-1.433-.207,4.027,4.027,0,0,1-2.828-4.1c0-13.029-1.686-14.064-3.893-14.064S20.233,49.2,20.233,62.228a4.027,4.027,0,0,1-2.828,4.1,5.263,5.263,0,0,1-5.6-1.786c-.1-.156-.248-.338-.416-.556C9.862,62.02,6.316,57.447,5.55,45.558-.079,38.437-1.554,29.8,1.712,22.9A15.128,15.128,0,0,1,15.6,13.955a23.759,23.759,0,0,1,8.526,1.512,23.759,23.759,0,0,1,8.526-1.512A15.128,15.128,0,0,1,46.54,22.9c3.265,6.9,1.791,15.538-3.838,22.659-.766,11.889-4.312,16.462-5.838,18.432-.168.218-.311.4-.416.556a5.125,5.125,0,0,1-4.169,1.993M24.126,45.049c6.49,0,7.007,7.445,7.007,17.179,0,.936.406,1.06.623,1.126a2.254,2.254,0,0,0,2.108-.548c.137-.2.319-.441.537-.723,1.37-1.766,4.578-5.906,5.221-17.2a1.559,1.559,0,0,1,.35-.9c5.2-6.349,6.6-13.73,3.751-19.748a12.077,12.077,0,0,0-11.073-7.163,20.592,20.592,0,0,0-7.912,1.51,1.569,1.569,0,0,1-1.227,0,20.592,20.592,0,0,0-7.912-1.51A12.077,12.077,0,0,0,4.527,24.232c-2.85,6.018-1.447,13.4,3.751,19.748a1.559,1.559,0,0,1,.35.9c.643,11.3,3.851,15.436,5.221,17.2.218.282.4.519.537.721a2.263,2.263,0,0,0,2.108.55c.216-.065.623-.19.623-1.126,0-9.734.517-17.179,7.007-17.179" transform="translate(0 7.775)" fill="#fff"/><path d="M19.551,22.348a18.089,18.089,0,0,0-4.6-4.471L16.4,15.121a21.124,21.124,0,0,1,5.631,5.347Z" transform="translate(8.33 8.425)" fill="#fff"/><path d="M26.336,18.617a1.555,1.555,0,0,1-1.392-.861L22.58,13.03l-4.726-2.362a1.558,1.558,0,0,1,0-2.787L22.58,5.518,24.944.792a1.621,1.621,0,0,1,2.786,0l2.362,4.726,4.726,2.362a1.558,1.558,0,0,1,0,2.787L30.092,13.03,27.73,17.756a1.559,1.559,0,0,1-1.394.861m-4.3-9.343,2.406,1.2a1.556,1.556,0,0,1,.7.7l1.2,2.4,1.2-2.4a1.563,1.563,0,0,1,.7-.7l2.406-1.2-2.406-1.2a1.563,1.563,0,0,1-.7-.7l-1.2-2.4-1.2,2.4a1.556,1.556,0,0,1-.7.7Z" transform="translate(9.468 0)" fill="#fff"/><path d="M38.893,26.732a1.555,1.555,0,0,1-1.392-.861l-2.882-5.765-5.765-2.881a1.558,1.558,0,0,1,0-2.787l5.765-2.881L37.5,5.792a1.621,1.621,0,0,1,2.786,0l2.881,5.765,5.765,2.881a1.558,1.558,0,0,1,0,2.787l-5.765,2.881-2.881,5.765a1.559,1.559,0,0,1-1.394.861m-5.861-10.9,3.443,1.721a1.559,1.559,0,0,1,.7.7l1.721,3.443,1.722-3.443a1.556,1.556,0,0,1,.7-.7l3.443-1.721-3.443-1.721a1.556,1.556,0,0,1-.7-.7L38.893,9.97l-1.721,3.443a1.559,1.559,0,0,1-.7.7Z" transform="translate(15.597 2.786)" fill="#fff"/></g></svg>