<svg xmlns="http://www.w3.org/2000/svg" xmlns:xlink="http://www.w3.org/1999/xlink" width="52" height="74.799" viewBox="0 0 52 74.799"><defs><clipPath id="a"><rect width="52" height="74.799" fill="none"/></clipPath></defs><g clip-path="url(#a)"><path d="M389.789,509.786a1.358,1.358,0,0,0-1.138.563,3.019,3.019,0,0,0-.429,1.812,3.08,3.08,0,0,0,.429,1.825,1.4,1.4,0,0,0,2.265,0,3.016,3.016,0,0,0,.441-1.825,2.957,2.957,0,0,0-.441-1.812,1.37,1.37,0,0,0-1.127-.563" transform="translate(-350.318 -460.014)" fill="#fff"/><path d="M266.988,429.439a3.007,3.007,0,0,0,.441-1.824,2.952,2.952,0,0,0-.441-1.812,1.419,1.419,0,0,0-2.265,0,3.017,3.017,0,0,0-.429,1.812,3.074,3.074,0,0,0,.429,1.824,1.4,1.4,0,0,0,2.265,0" transform="translate(-238.49 -383.721)" fill="#fff"/><path d="M135.619,434.611a2.806,2.806,0,0,0-.735-1.176,1.669,1.669,0,0,0-1.152-.416,1.62,1.62,0,0,0-1.138.416,2.957,2.957,0,0,0-.735,1.176,7.821,7.821,0,0,0-.4,1.8,19.888,19.888,0,0,0-.123,2.315,20.2,20.2,0,0,0,.123,2.326,7.813,7.813,0,0,0,.4,1.813,2.958,2.958,0,0,0,.735,1.176,1.615,1.615,0,0,0,1.138.416,1.665,1.665,0,0,0,1.152-.416,2.807,2.807,0,0,0,.735-1.176,8.366,8.366,0,0,0,.392-1.813,20.2,20.2,0,0,0,.123-2.326,19.888,19.888,0,0,0-.123-2.315,8.379,8.379,0,0,0-.392-1.8" transform="translate(-118.51 -390.742)" fill="#fff"/><path d="M29.318,1.719a4.056,4.056,0,0,0-6.632,0C20.367,5,0,34.233,0,48.8a26,26,0,0,0,52,0C52,34.233,31.637,5,29.318,1.719m-9.6,52.84a5.213,5.213,0,0,1-4.5,2.29,5.21,5.21,0,0,1-4.493-2.29A11.243,11.243,0,0,1,9.1,47.983a15.012,15.012,0,0,1,.429-3.772,8.313,8.313,0,0,1,1.237-2.768A5.514,5.514,0,0,1,12.7,39.729a5.373,5.373,0,0,1,2.523-.587,5.216,5.216,0,0,1,4.5,2.29,11.2,11.2,0,0,1,1.628,6.552,11.249,11.249,0,0,1-1.628,6.576m7.126-43.023h0a1.58,1.58,0,0,1,2.183.453,177.12,177.12,0,0,1,9.357,15.863,1.579,1.579,0,0,1-.681,2.125,1.589,1.589,0,0,1-.721.174,1.572,1.572,0,0,1-1.4-.854,173.571,173.571,0,0,0-9.187-15.574,1.581,1.581,0,0,1,.45-2.186M24.213,47.419a4.888,4.888,0,0,1-1.177-3.526,4.891,4.891,0,0,1,1.177-3.528,4.174,4.174,0,0,1,3.159-1.225,4.176,4.176,0,0,1,3.16,1.225,4.894,4.894,0,0,1,1.176,3.528,4.892,4.892,0,0,1-1.176,3.526,4.172,4.172,0,0,1-3.16,1.225,4.17,4.17,0,0,1-3.159-1.225m2.693,9.087,9.577-16.973h3.4L30.311,56.507Zm15.725-.833a4.176,4.176,0,0,1-3.16,1.225,4.176,4.176,0,0,1-3.16-1.225,4.893,4.893,0,0,1-1.176-3.527,4.9,4.9,0,0,1,1.176-3.527,4.176,4.176,0,0,1,3.16-1.225,4.176,4.176,0,0,1,3.16,1.225,4.9,4.9,0,0,1,1.176,3.527,4.893,4.893,0,0,1-1.176,3.527" transform="translate(0 0.001)" fill="#fff"/></g></svg>