<svg xmlns="http://www.w3.org/2000/svg" xmlns:xlink="http://www.w3.org/1999/xlink" width="69.094" height="83.569" viewBox="0 0 69.094 83.569"><defs><clipPath id="a"><rect width="69.094" height="83.569" fill="none"/></clipPath></defs><g clip-path="url(#a)"><path d="M164.789,64.509a23.517,23.517,0,0,1-9.249-1.877,24.043,24.043,0,0,1-12.715-12.787,24.109,24.109,0,0,1-1.891-9.361,36.559,36.559,0,0,1,3.578-15.066,66.61,66.61,0,0,1,7.764-12.724A89,89,0,0,1,163.531.442a1.808,1.808,0,0,1,2.362,0,89.5,89.5,0,0,1,13.6,15.355,1.808,1.808,0,1,1-2.971,2.06,88.94,88.94,0,0,0-11.8-13.6,90.263,90.263,0,0,0-9.61,10.686,62.879,62.879,0,0,0-7.319,12,32.971,32.971,0,0,0-3.24,13.533,20.431,20.431,0,0,0,5.962,14.46,20,20,0,0,0,14.278,5.958h.038a20.006,20.006,0,0,0,14.294-6.013A20.429,20.429,0,0,0,185.029,40.4a28.086,28.086,0,0,0-.86-6.643,1.808,1.808,0,1,1,3.51-.866,31.692,31.692,0,0,1,.965,7.5,24.107,24.107,0,0,1-6.949,17.028,23.767,23.767,0,0,1-7.573,5.176,23.528,23.528,0,0,1-9.287,1.913h-.045" transform="translate(-131.095 -0.001)" fill="#fff"/><path d="M329.693,287.057a1.8,1.8,0,0,1-1.278-.529L317.62,275.733a1.808,1.808,0,1,1,2.556-2.556l9.516,9.516,21.2-21.2a1.808,1.808,0,0,1,2.556,2.556l-22.474,22.474a1.8,1.8,0,0,1-1.278.529" transform="translate(-294.952 -242.748)" fill="#fff"/></g></svg>