<svg xmlns="http://www.w3.org/2000/svg" xmlns:xlink="http://www.w3.org/1999/xlink" width="70.602" height="70.856" viewBox="0 0 70.602 70.856"><defs><clipPath id="a"><rect width="70.602" height="70.856" fill="none"/></clipPath></defs><g transform="translate(0 0)" clip-path="url(#a)"><path d="M3.881,19.459a2.244,2.244,0,0,1,2.687-1.685,39.28,39.28,0,0,1,14.8,6.655,2.243,2.243,0,0,1-2.6,3.658,34.587,34.587,0,0,0-13.2-5.941,2.239,2.239,0,0,1-1.687-2.686m30.93,4.611A1.734,1.734,0,0,0,36.7,23.3a1.716,1.716,0,0,0,.207-.5,26.771,26.771,0,0,1,4.763-10.129,1.733,1.733,0,0,0-2.793-2.053,30.394,30.394,0,0,0-5.336,11.352,1.735,1.735,0,0,0,1.268,2.1M50.5,41.113a2.52,2.52,0,1,0-1.976,4.636,38.891,38.891,0,0,1,13.42,9.2,2.52,2.52,0,0,0,3.6-3.529A44.149,44.149,0,0,0,50.5,41.113M26.933,44.389a3.292,3.292,0,0,0-.986.289A51.046,51.046,0,0,1,5.209,49.816a3.309,3.309,0,1,0,.323,6.61,57.975,57.975,0,0,0,23.239-5.762,3.309,3.309,0,0,0-1.837-6.275M67.492,24.028A1.883,1.883,0,0,0,65,23.073a29.108,29.108,0,0,1-11.883,2.671,1.886,1.886,0,1,0,.1,3.771,33.059,33.059,0,0,0,13.318-3,1.886,1.886,0,0,0,.955-2.491M43.277,59.081a1.885,1.885,0,0,0-2.417,1.13A29.093,29.093,0,0,1,34.536,70.62a1.886,1.886,0,1,0,2.785,2.544A33.041,33.041,0,0,0,44.407,61.5a1.887,1.887,0,0,0-1.13-2.417M22.311,66.743A2.294,2.294,0,1,0,24.6,69.036a2.293,2.293,0,0,0-2.293-2.293M58.918,22.3a2.294,2.294,0,1,0-2.295-2.293A2.294,2.294,0,0,0,58.918,22.3M38.446,40.91A3.142,3.142,0,1,0,35.3,44.053a3.142,3.142,0,0,0,3.142-3.142M6.284,39.716a3.142,3.142,0,1,0-3.142,3.142,3.142,3.142,0,0,0,3.142-3.142" transform="translate(0 -2.923)" fill="#fff"/><path d="M24.971,7.305a33.217,33.217,0,0,0-12.685,5.684,2.152,2.152,0,0,1-2.5-3.506A37.71,37.71,0,0,1,24,3.11a2.153,2.153,0,0,1,.97,4.2M70.69,35.518a1.472,1.472,0,0,0-1.6-.671,1.457,1.457,0,0,0-.422.173,22.709,22.709,0,0,1-8.941,3.221,1.472,1.472,0,0,0,.444,2.91,25.792,25.792,0,0,0,10.019-3.612,1.472,1.472,0,0,0,.5-2.021M13.9,41.053a1.472,1.472,0,0,0-1.511-.85,1.5,1.5,0,0,0-.44.123A22.708,22.708,0,0,1,2.7,42.5a1.472,1.472,0,0,0,.109,2.941A25.8,25.8,0,0,0,13.173,43a1.471,1.471,0,0,0,.726-1.951M46.223,20.908A41.815,41.815,0,0,0,58.779,9.056,2.386,2.386,0,1,0,54.885,6.3,36.822,36.822,0,0,1,43.679,16.871a2.386,2.386,0,1,0,2.544,4.037m-40.9.661A3.091,3.091,0,1,0,2.9,27.256,47.7,47.7,0,0,1,19.366,38.538a3.091,3.091,0,1,0,4.413-4.329A54.152,54.152,0,0,0,5.326,21.569m21.435-.65a2.52,2.52,0,0,0,3.456-.87,44.143,44.143,0,0,0,6.161-17.16,2.519,2.519,0,1,0-4.984-.738,38.9,38.9,0,0,1-5.5,15.311,2.52,2.52,0,0,0,.869,3.456m21.7,26.835A2.11,2.11,0,0,0,44.9,50.015a32.558,32.558,0,0,1,4.9,12.712A2.11,2.11,0,1,0,53.954,62a36.958,36.958,0,0,0-5.491-14.245M22.946,58.374A33.031,33.031,0,0,0,9.384,56.828,1.886,1.886,0,1,0,9.7,60.587a29.1,29.1,0,0,1,12.1,1.382,1.886,1.886,0,1,0,1.143-3.6M42.78,42.311a3.046,3.046,0,0,0-4.295.305A53.332,53.332,0,0,0,27.537,61.735a3.044,3.044,0,1,0,5.775,1.929,46.977,46.977,0,0,1,9.774-17.057,3.045,3.045,0,0,0-.305-4.3m-8.8-17.572a3.478,3.478,0,0,0,1.431,4.7,60.9,60.9,0,0,0,24.069,7.334,3.477,3.477,0,1,0,.681-6.921,53.663,53.663,0,0,1-21.476-6.548,3.476,3.476,0,0,0-4.7,1.431M47.01,64.524a1.59,1.59,0,1,0,1.59,1.59,1.59,1.59,0,0,0-1.59-1.59m10.45-14.042A2.164,2.164,0,1,0,55.3,52.646a2.164,2.164,0,0,0,2.164-2.164m9.525-18.5a2.294,2.294,0,1,0-2.294-2.294,2.294,2.294,0,0,0,2.294,2.294M21.161,53.656a1.636,1.636,0,1,0-1.636,1.636,1.636,1.636,0,0,0,1.636-1.636M9.8,34.5a1.071,1.071,0,1,0-1.071,1.071A1.071,1.071,0,0,0,9.8,34.5M59.218,55.624A2.687,2.687,0,1,0,61.9,58.311a2.687,2.687,0,0,0-2.686-2.687m6.719-13.412a2.294,2.294,0,1,0,2.294,2.294,2.294,2.294,0,0,0-2.294-2.294M46.866,37.9a2.294,2.294,0,1,0-2.294,2.294A2.294,2.294,0,0,0,46.866,37.9m-15.9-5.913a2.641,2.641,0,1,0-2.641,2.64,2.641,2.641,0,0,0,2.641-2.64M47.01,8.432A3.142,3.142,0,1,0,43.867,5.29,3.142,3.142,0,0,0,47.01,8.432m-25.466,3.22a3.142,3.142,0,1,0,3.142,3.142,3.142,3.142,0,0,0-3.142-3.142" transform="translate(-0.301 0)" fill="#fff"/></g></svg>